<?xml version="1.0" encoding="UTF-8" standalone="no"?>
<!-- Created with Inkscape (http://www.inkscape.org/) -->

<svg
   width="116"
   height="115.99998"
   viewBox="0 0 116 115.99998"
   version="1.1"
   id="svg1"
   xml:space="preserve"
   xmlns="http://www.w3.org/2000/svg"
   xmlns:svg="http://www.w3.org/2000/svg"><defs
     id="defs1" /><g
     id="layer1"
     transform="translate(-2,-2.75)"><path
       id="path3"
       style="color:#000000;display:inline;fill:#d8bc97;fill-opacity:1;stroke:none;stroke-linejoin:round;stroke-miterlimit:4.6;stroke-opacity:1;-inkscape-stroke:none"
       d="m 60.060616,1.6848476 c -5.305987,8.58e-5 -9.607269,4.302877 -9.607355,9.6088634 0.0048,4.196781 2.733026,7.903417 6.738282,9.156781 -0.06491,0.277289 -0.107086,0.567229 -0.107086,0.874864 l 0.07072,28.996123 c 0.0083,3.419611 -2.76101,6.196427 -6.180631,6.197309 H 16.226428 c -1.155413,0 -2.085129,1.26798 -2.085129,2.842264 0,0.121173 0.01557,0.236614 0.02627,0.353714 0.12836,1.404267 0.992382,2.488551 2.058863,2.488551 H 43.03408 c 3.509365,0 7.164545,2.98928 9.795259,5.240818 2.014543,1.724179 4.629023,2.741232 7.429283,2.745987 3.307985,-0.0056 6.357076,-1.422561 8.463767,-3.750617 1.805193,-1.994876 4.60411,-4.236188 7.316137,-4.236188 h 28.032054 c 0.99247,0 1.81517,-0.938199 2.02856,-2.19972 0.035,-0.207124 0.0566,-0.420522 0.0566,-0.642545 0,-1.574284 -0.92971,-2.842264 -2.08513,-2.842264 H 70.076106 c -3.54352,7.01e-4 -6.418811,-2.867282 -6.427128,-6.410793 l -0.07072,-28.782639 c -9.46e-4,-0.376862 -0.05586,-0.732203 -0.151535,-1.06114 3.743666,-1.40096 6.229823,-4.973307 6.241245,-8.970505 -8.6e-5,-5.3059864 -4.301367,-9.6087776 -9.607355,-9.6088634 z m 0.0687,3.2483024 c 3.475174,-3.808e-4 6.291445,2.8480207 6.291757,6.360561 7.55e-4,3.513303 -2.815828,6.360942 -6.291757,6.360561 -3.475927,3.8e-4 -6.294532,-2.847258 -6.293777,-6.360561 3.11e-4,-3.5125399 2.818604,-6.3609412 6.293777,-6.360561 z"
       transform="matrix(0.96666664,0,0,0.93317974,2,2.75)" /></g></svg>
