<?xml version="1.0" encoding="UTF-8" standalone="no"?>
<!-- Created with Inkscape (http://www.inkscape.org/) -->

<svg
   width="116"
   height="115.99998"
   viewBox="0 0 116 115.99998"
   version="1.1"
   id="svg1"
   xml:space="preserve"
   xmlns="http://www.w3.org/2000/svg"
   xmlns:svg="http://www.w3.org/2000/svg"><defs
     id="defs1" /><g
     id="layer1"
     transform="translate(-2,-2.75)"><path
       d="m 72.772077,7.8658443 c 0.68787,1.615143 0.68071,1.934013 1.0625,3.6308597 20.12073,5.640806 34.749993,24.991152 34.749993,46.234374 0,25.768943 -21.638373,46.658192 -48.332023,46.658192 -26.69366,0 -48.333986,-20.889249 -48.333986,-46.658192 0,-21.164079 14.689816,-40.457238 34.695316,-46.167968 -0.0918,-1.7529377 0.28481,-2.0117317 0.89648,-3.6445307 C 24.305837,13.431867 7.0845757,33.628888 7.0845757,57.731078 c 0,23.225263 16.0170313,43.788982 37.9550813,50.460932 2.77413,0.84369 6.71262,2.9353 8.76367,4.92774 1.95836,1.9024 4.07869,3.89366 5.39062,4.97851 0.4959,0.41008 1.58613,0.49343 2.1543,0.0156 1.91162,-1.60746 3.72549,-3.27083 5.33789,-4.85742 2.03797,-2.00534 5.93026,-3.97396 8.73438,-4.7168 19.9669,-5.2895 37.998043,-27.724816 37.998043,-50.808589 0,-24.17938 -17.329283,-44.428787 -40.646483,-49.8652337 z"
       style="color:#000000;display:inline;fill:#d8bc97;fill-opacity:1;stroke:none;stroke-width:0.949776;stroke-linejoin:round;stroke-miterlimit:4.6;stroke-opacity:1;-inkscape-stroke:none"
       id="path1" /></g></svg>
